<?xml version="1.0" encoding="UTF-8"?>
<svg width="400px" height="70px" viewBox="0 0 400 70" version="1.1" xmlns="http://www.w3.org/2000/svg" xmlns:xlink="http://www.w3.org/1999/xlink">
    <!-- Generator: Sketch 55.2 (78181) - https://sketchapp.com -->
    <title>Combined Shape</title>
    <desc>Created with Sketch.</desc>
    <defs>
        <linearGradient x1="100%" y1="51.4961927%" x2="0%" y2="48.5038073%" id="linearGradient-1">
            <stop stop-color="#FECA6C" offset="0%"></stop>
            <stop stop-color="#F32222" offset="49.2477829%"></stop>
            <stop stop-color="#700F7B" offset="100%"></stop>
        </linearGradient>
    </defs>
    <g id="Coda" stroke="none" stroke-width="1" fill="none" fill-rule="evenodd">
        <g id="Judge-1" transform="translate(-520.000000, -280.000000)" fill="url(#linearGradient-1)">
            <g id="Group-5" transform="translate(500.000000, 279.000000)">
                <g id="Group-6" transform="translate(20.000000, 0.000000)">
                    <path d="M144.785276,70.1441718 C125.811076,70.1441718 110.429448,54.6979956 110.429448,35.6441718 C110.429448,16.5903479 125.811076,1.14417178 144.785276,1.14417178 C163.759476,1.14417178 179.141104,16.5903479 179.141104,35.6441718 C179.141104,54.6979956 163.759476,70.1441718 144.785276,70.1441718 Z M144.785276,64.3941718 C160.597109,64.3941718 173.415133,51.5223583 173.415133,35.6441718 C173.415133,19.7659852 160.597109,6.89417178 144.785276,6.89417178 C128.973443,6.89417178 116.155419,19.7659852 116.155419,35.6441718 C116.155419,51.5223583 128.973443,64.3941718 144.785276,64.3941718 Z M365.360397,1.14417178 C384.06338,1.14417178 399.275976,16.1478377 399.708855,34.8208632 C399.715159,35.092805 399.708855,66.7906336 399.708855,67.064097 C399.708855,71.171104 393.982533,71.1706228 393.982533,67.064097 C393.982533,66.7921157 393.988244,35.0959082 393.980769,34.825741 C393.551909,19.325996 380.902296,6.8933079 365.360397,6.8933079 C349.808544,6.8933079 337.142255,19.3040834 336.728788,34.8176833 C336.721851,35.077989 336.728788,66.8021098 336.728788,67.064097 C336.728788,71.1706228 331.002466,71.1706228 331.002466,67.064097 C331.002466,66.8075743 330.996917,35.0728691 331.002466,34.8176833 C331.409035,16.1211939 346.640541,1.14417178 365.360397,1.14417178 Z M289.855828,35.5045882 C289.855828,54.2860571 274.914861,69.562491 256.319868,69.9971864 C256.049063,70.003517 224.483696,69.9971864 224.211375,69.9971864 C220.121531,69.9971864 220.12201,64.2468345 224.211375,64.2468345 C224.48222,64.2468345 256.045972,64.2525698 256.315011,64.2450632 C271.749984,63.8144035 284.130717,51.1117078 284.130717,35.5045882 C284.130717,19.8874724 271.771805,7.16803004 256.323035,6.75282859 C256.063817,6.74586184 224.472268,6.75282859 224.211375,6.75282859 C220.12201,6.75282859 220.12201,1.00247666 224.211375,1.00247666 C224.466826,1.00247666 256.068915,0.996904177 256.323035,1.00247666 C274.941393,1.41075105 289.855828,16.7061751 289.855828,35.5045882 Z M-5.27914421e-13,35.64876 C-5.2676335e-13,16.8503469 14.9144348,1.55492283 33.5327936,1.14664844 C33.786913,1.14107596 65.3890022,1.14664844 65.6444529,1.14664844 C69.733818,1.14664844 69.733818,6.89700037 65.6444529,6.89700037 C65.3835606,6.89700037 33.7920115,6.89003362 33.5327936,6.89700037 C18.0840233,7.31220182 5.7251111,20.0316442 5.7251111,35.64876 C5.7251111,51.2558796 18.1058444,63.9585752 33.5408176,64.389235 C33.8098558,64.3967416 65.3736082,64.3910062 65.6444529,64.3910062 C69.733818,64.3910062 69.7342972,70.1413582 65.6444529,70.1413582 C65.3721324,70.1413582 33.8067656,70.1476888 33.5359601,70.1413582 C14.9409673,69.7066628 -5.29064454e-13,54.4302289 -5.27914421e-13,35.64876 Z M366,50 C363.790861,50 362,48.209139 362,46 C362,43.790861 363.790861,42 366,42 C368.209139,42 370,43.790861 370,46 C370,48.209139 368.209139,50 366,50 Z" id="Combined-Shape"></path>
                </g>
            </g>
        </g>
    </g>
</svg>